<?xml version="1.0" encoding="UTF-8" standalone="no"?>
<svg
   xmlns:dc="http://purl.org/dc/elements/1.1/"
   xmlns:cc="http://creativecommons.org/ns#"
   xmlns:rdf="http://www.w3.org/1999/02/22-rdf-syntax-ns#"
   xmlns:svg="http://www.w3.org/2000/svg"
   xmlns="http://www.w3.org/2000/svg"
   xmlns:sodipodi="http://sodipodi.sourceforge.net/DTD/sodipodi-0.dtd"
   xmlns:inkscape="http://www.inkscape.org/namespaces/inkscape"
   height="512px"
   style="shape-rendering:geometricPrecision; text-rendering:geometricPrecision; image-rendering:optimizeQuality; fill-rule:evenodd; clip-rule:evenodd"
   viewBox="0 0 108.698 108.699"
   width="512px"
   xml:space="preserve"
   id="svg3071"
   version="1.1"
   inkscape:version="0.48.4 r9939"
   sodipodi:docname="sharewatcher.svg"><metadata
     id="metadata3082"><rdf:RDF><cc:Work
         rdf:about=""><dc:format>image/svg+xml</dc:format><dc:type
           rdf:resource="http://purl.org/dc/dcmitype/StillImage" /><dc:title></dc:title></cc:Work></rdf:RDF></metadata><sodipodi:namedview
     pagecolor="#ffffff"
     bordercolor="#666666"
     borderopacity="1"
     objecttolerance="10"
     gridtolerance="10"
     guidetolerance="10"
     inkscape:pageopacity="0"
     inkscape:pageshadow="2"
     inkscape:window-width="1535"
     inkscape:window-height="1176"
     id="namedview3080"
     showgrid="false"
     inkscape:zoom="1.3037281"
     inkscape:cx="417.59551"
     inkscape:cy="438.43996"
     inkscape:window-x="65"
     inkscape:window-y="24"
     inkscape:window-maximized="1"
     inkscape:current-layer="svg3071" /><defs
     id="defs3073"><style
       type="text/css"
       id="style3075">
    .fil0 {fill:#4B4B4D}
   </style></defs><g
     id="Layer_x0020_1"><path
       class="fil0"
       d="M-0 0l108.698 0 0 108.699 -108.698 0 0 -108.699zm77.2777 44.1327c-3.17626,0 -6.04463,-1.19461 -8.28129,-3.103l-24.8934 12.5134c0,0.615203 -0.0963837,1.20562 -0.181752,1.79604l24.9683 12.3729c2.25097,-1.96678 5.16231,-3.19884 8.38813,-3.19884 7.06465,0 12.7926,5.71528 12.7926,12.7662 0,7.04868 -5.72794,12.764 -12.7926,12.764 -7.0652,0 -12.7909,-5.71528 -12.7909,-12.764 0,-0.219204 0.0534241,-0.421885 0.0638886,-0.636683l-25.6634 -12.8818c-2.11053,1.55426 -4.69636,2.50377 -7.52013,2.50377 -7.03656,0 -12.7397,-5.70261 -12.7397,-12.7375 0.000550764,-7.03656 5.70316,-12.7392 12.7397,-12.7392 3.42135,0 6.51333,1.36589 8.80231,3.56179l24.3939 -12.2005c-0.0159722,-0.256105 -0.0765562,-0.496238 -0.0765562,-0.755648 0,-7.03546 5.72574,-12.7375 12.7909,-12.7375 7.06465,-0.000550764 12.7926,5.70261 12.7926,12.7375 0,7.03436 -5.72794,12.7392 -12.7926,12.7392z"
       id="path3078"
       style="fill:#ffffff;stroke:none" /></g><path
     style="fill:#000000;stroke:#ffffff"
     d="m 343.61567,419.10853 c -19.64008,-6.96541 -37.69934,-30.66962 -37.73312,-49.52771 l -0.0157,-8.79438 -61.34744,-30.81478 -61.34745,-30.81479 -11.11276,5.49964 c -8.29142,4.10338 -14.46207,5.48363 -24.30512,5.43655 -49.90856,-0.23871 -76.669832,-57.81345 -44.39712,-95.51686 19.5159,-22.79993 51.83834,-27.35919 76.40746,-10.7777 l 9.97585,6.73263 57.81191,-28.84253 57.81189,-28.84254 1.15927,-12.78456 c 2.54347,-28.04971 27.63358,-50.15823 56.86654,-50.108771 42.33014,0.07162 71.72877,43.139901 54.55273,79.918461 -11.27113,24.13457 -28.72975,35.79661 -53.58921,35.79661 -11.89871,0 -16.75048,-1.1835 -27.42871,-6.69068 l -12.97295,-6.69068 -59.06176,29.5465 c -55.90287,27.96624 -59.02542,29.84495 -58.38262,35.12658 0.60706,4.9879 6.94777,8.6434 59.74741,34.44518 l 59.06828,28.8651 5.33296,-4.19489 c 14.4602,-11.3744 38.92269,-13.74777 56.64373,-5.4956 29.12065,13.5606 42.44404,44.46785 31.57591,73.24889 -11.47564,30.38982 -44.8867,46.05225 -75.25993,35.28033 l 0,0 z"
     id="path3086"
     inkscape:connector-curvature="0"
     transform="matrix(0.21230273,0,0,0.21230273,-5e-4,0)" /><path
     style="fill:#ffffff;stroke:none"
     d="M 0,256.65085 0,1.7355932 l 256,0 256,0 0,254.9152568 0,254.91525 -256,0 -256,0 0,-254.91525 z m 387.08109,163.67507 c 8.43175,-3.15472 14.74823,-7.60417 21.57663,-15.19902 22.13199,-24.61607 22.13199,-57.55637 0,-82.17244 -19.43241,-21.61354 -53.79579,-26.17848 -76.98071,-10.22636 l -7.33803,5.04884 -54.23729,-26.99517 c -51.78871,-25.77647 -61.8305,-31.53697 -61.8305,-35.4692 0,-0.96277 26.12783,-14.87049 58.06184,-30.90603 l 58.06184,-29.15552 9.45237,5.58221 c 14.38158,8.49322 38.98554,9.45498 54.94643,2.14784 27.60385,-12.63746 42.14263,-42.82072 34.27219,-71.15088 -12.73034,-45.823595 -71.59446,-59.65949 -104.56509,-24.5778 -8.05523,8.57101 -14.66732,24.03412 -14.72431,34.43444 l -0.0476,8.697 -56.94915,28.38982 -56.94915,28.38982 -9.50709,-6.07728 c -38.50498,-24.6138 -88.835359,0.24786 -92.977489,45.92799 -2.777053,30.62585 18.747079,59.12088 48.707759,64.48248 13.61451,2.43638 30.93498,0.0397 40.37941,-5.58755 l 6.88893,-4.10457 60.20339,30.0408 60.20339,30.04082 0,7.262 c 0,3.9941 1.14244,10.58055 2.53874,14.63658 11.32082,32.88496 47.21122,49.11341 80.81354,36.54118 z"
     id="path3088"
     inkscape:connector-curvature="0"
     transform="matrix(0.21230273,0,0,0.21230273,-5e-4,0)" /><path
     style="fill:none;stroke:none"
     d="m 345.72425,418.08059 c -9.5101,-2.75556 -27.75366,-19.76694 -33.14712,-30.90836 -2.48014,-5.12325 -4.50933,-13.39676 -4.50933,-18.38555 l 0,-9.07051 -62.37288,-31.13344 -62.37289,-31.13344 -10.84745,4.95916 c -12.34674,5.64459 -29.34047,6.66373 -43.13813,2.58709 -19.2795,-5.6963 -38.217806,-32.37159 -38.217806,-53.83115 0,-32.76254 34.106916,-60.83072 65.898346,-54.23085 6.41387,1.33152 16.39832,5.42489 22.18766,9.09638 l 10.52608,6.67544 58.17327,-29.01031 c 43.34395,-21.61511 58.39512,-30.11638 59.04354,-33.34929 0.47865,-2.38644 1.49616,-8.19866 2.26113,-12.91604 7.01822,-43.27918 63.19822,-60.305208 94.46411,-28.62848 22.77276,23.07198 22.37988,54.61784 -0.97838,78.56104 -17.66374,18.10608 -39.83288,21.34999 -65.71281,9.61548 l -14.38076,-6.52055 -55.5377,28.31542 c -30.54574,15.57348 -57.23201,30.31363 -59.30283,32.7559 -2.82337,3.32981 -3.21939,5.46021 -1.58328,8.51731 1.20513,2.25179 28.20668,17.14508 60.31725,33.26927 l 58.1354,29.19245 10.55475,-6.86576 c 9.62178,-6.2589 12.10193,-6.86831 28.05804,-6.89448 15.21588,-0.0249 18.82914,0.75071 27.64867,5.93528 33.76395,19.84813 39.58146,60.67484 12.60006,88.42585 -14.76254,15.1836 -37.07689,20.96707 -57.76694,14.97214 l 0,0 z"
     id="path3092"
     inkscape:connector-curvature="0"
     transform="matrix(0.21230273,0,0,0.21230273,-5e-4,0)" /><path
     style="fill:none;stroke:none"
     d="m 2.1694915,256.65085 0,-252.7457653 253.8305085,0 253.83051,0 0,252.7457653 0,252.74576 -253.83051,0 -253.8305085,0 0,-252.74576 z M 389.1709,421.77766 c 10.95213,-4.57609 24.78655,-18.05614 31.28196,-30.48066 8.23819,-15.75815 8.2104,-38.80594 -0.0657,-54.64257 -16.70883,-31.97239 -52.94956,-43.80976 -85.44765,-27.90993 l -12.71722,6.22195 -52.74958,-26.9883 c -29.01226,-14.84357 -53.7324,-28.13383 -54.93364,-29.53391 -2.71166,-3.16054 1.94733,-5.91783 62.64716,-37.07588 l 46.13526,-23.68185 11.29509,5.58988 c 15.10792,7.47683 41.10527,7.96071 55.89204,1.0403 12.24563,-5.73112 24.49565,-18.0189 30.87942,-30.97463 7.29263,-14.80027 6.76673,-38.41957 -1.19962,-53.87559 -7.04859,-13.67539 -22.96524,-26.945284 -37.04954,-30.888648 -13.45562,-3.767339 -36.87984,-1.940987 -47.95229,3.738772 -18.36807,9.422126 -33.62712,32.348016 -33.62712,50.522856 0,6.2399 -1.65819,7.26096 -55.3467,34.08065 l -55.3468,27.64803 -11.15816,-6.2723 c -13.22907,-7.43643 -35.2405,-9.95182 -50.26781,-5.74444 -14.75192,4.13029 -29.649171,16.70496 -37.137776,31.34775 -5.460656,10.67748 -6.470274,15.12895 -6.38264,28.14149 0.167355,24.84977 10.689037,43.02694 31.615806,54.61925 10.25468,5.68053 13.62277,6.39775 30.04476,6.39775 13.65031,0 20.94626,-1.10336 27.85132,-4.21192 l 9.35595,-4.21191 58.18736,29.02985 58.18737,29.02986 1.41021,11.28693 c 2.85518,22.85208 21.0357,43.58767 43.83545,49.99604 12.0371,3.3833 31.84026,2.36505 42.76313,-2.19882 l 0,0 z"
     id="path3189"
     inkscape:connector-curvature="0"
     transform="matrix(0.21230273,0,0,0.21230273,-5e-4,0)" /><path
     style="fill:none;stroke:none;stroke-width:2.16949153000000017"
     d="m 343.86441,414.21883 c -10.18197,-4.65085 -26.13661,-21.26402 -30.53833,-31.79881 -1.69884,-4.06588 -3.08879,-11.09258 -3.08879,-15.61491 l 0,-8.22237 -63.45763,-31.6771 -63.45763,-31.6771 -9.44825,4.04102 c -12.96099,5.54342 -29.78174,7.18895 -41.5348,4.06324 -18.55323,-4.93421 -39.050844,-32.28425 -39.050844,-52.10568 0,-9.15928 6.091363,-24.53926 13.074074,-33.01049 9.34693,-11.33945 26.09952,-19.05731 41.36632,-19.05731 9.93853,0 15.34557,1.53161 27.52508,7.7968 l 15.15696,7.79679 56.73997,-28.60669 c 34.18735,-17.2363 57.87658,-30.46752 59.59955,-33.28832 1.57275,-2.5749 4.01859,-10.16801 5.43521,-16.87358 4.82284,-22.82914 23.85319,-38.401338 49.43909,-40.455128 18.18279,-1.45954 33.91921,5.882898 45.0207,21.006128 15.81286,21.54143 14.6781,45.61858 -3.10201,65.81785 -17.83801,20.26506 -38.75555,23.88169 -67.49064,11.66912 l -14.14209,-6.01047 -50.392,26.20777 c -63.31071,32.92651 -67.58615,35.60038 -67.58615,42.2686 0,6.38349 13.70225,14.60869 77.47025,46.50389 l 43.84314,21.92928 10.60875,-6.59478 c 9.38861,-5.83627 12.50343,-6.59475 27.08237,-6.59475 18.0201,0 24.6561,2.41727 37.43301,13.63554 22.96735,20.16559 23.4649,52.55159 1.15715,75.31901 -15.9068,16.23459 -39.58248,21.79088 -57.66246,13.53245 l 0,0 z"
     id="path3191"
     inkscape:connector-curvature="0"
     transform="matrix(0.21230273,0,0,0.21230273,-5e-4,0)" /><path
     style="fill:none;stroke:none"
     d="m 343.86441,414.21883 c -10.18197,-4.65085 -26.13661,-21.26402 -30.53833,-31.79881 -1.69884,-4.06588 -3.08879,-11.09258 -3.08879,-15.61491 l 0,-8.22237 -63.45763,-31.6771 -63.45763,-31.6771 -9.44825,4.04102 c -12.96099,5.54342 -29.78174,7.18895 -41.5348,4.06324 -18.55323,-4.93421 -39.050844,-32.28425 -39.050844,-52.10568 0,-9.15928 6.091363,-24.53926 13.074074,-33.01049 9.34693,-11.33945 26.09952,-19.05731 41.36632,-19.05731 9.93853,0 15.34557,1.53161 27.52508,7.7968 l 15.15696,7.79679 56.73997,-28.60669 c 34.18735,-17.2363 57.87658,-30.46752 59.59955,-33.28832 1.57275,-2.5749 4.01859,-10.16801 5.43521,-16.87358 4.82284,-22.82914 23.85319,-38.401338 49.43909,-40.455128 18.18279,-1.45954 33.91921,5.882898 45.0207,21.006128 15.81286,21.54143 14.6781,45.61858 -3.10201,65.81785 -17.83801,20.26506 -38.75555,23.88169 -67.49064,11.66912 l -14.14209,-6.01047 -50.392,26.20777 c -63.31071,32.92651 -67.58615,35.60038 -67.58615,42.2686 0,6.38349 13.70225,14.60869 77.47025,46.50389 l 43.84314,21.92928 10.60875,-6.59478 c 9.38861,-5.83627 12.50343,-6.59475 27.08237,-6.59475 18.0201,0 24.6561,2.41727 37.43301,13.63554 22.96735,20.16559 23.4649,52.55159 1.15715,75.31901 -15.9068,16.23459 -39.58248,21.79088 -57.66246,13.53245 l 0,0 z"
     id="path3193"
     inkscape:connector-curvature="0"
     transform="matrix(0.21230273,0,0,0.21230273,-5e-4,0)" /><path
     style="fill:none;stroke:none"
     d="m 345.72425,418.08059 c -9.5101,-2.75556 -27.75366,-19.76694 -33.14712,-30.90836 -2.48014,-5.12325 -4.50933,-13.39676 -4.50933,-18.38555 l 0,-9.07051 -62.37288,-31.13344 -62.37289,-31.13344 -10.84745,4.95916 c -12.34674,5.64459 -29.34047,6.66373 -43.13813,2.58709 -19.2795,-5.6963 -38.217806,-32.37159 -38.217806,-53.83115 0,-32.76254 34.106916,-60.83072 65.898346,-54.23085 6.41387,1.33152 16.39832,5.42489 22.18766,9.09638 l 10.52608,6.67544 58.17327,-29.01031 c 43.34395,-21.61511 58.39512,-30.11638 59.04354,-33.34929 0.47865,-2.38644 1.49616,-8.19866 2.26113,-12.91604 7.01822,-43.27918 63.19822,-60.305208 94.46411,-28.62848 22.77276,23.07198 22.37988,54.61784 -0.97838,78.56104 -17.66374,18.10608 -39.83288,21.34999 -65.71281,9.61548 l -14.38076,-6.52055 -55.5377,28.31542 c -30.54574,15.57348 -57.23201,30.31363 -59.30283,32.7559 -2.82337,3.32981 -3.21939,5.46021 -1.58328,8.51731 1.20513,2.25179 28.20668,17.14508 60.31725,33.26927 l 58.1354,29.19245 10.55475,-6.86576 c 9.62178,-6.2589 12.10193,-6.86831 28.05804,-6.89448 15.21588,-0.0249 18.82914,0.75071 27.64867,5.93528 33.76395,19.84813 39.58146,60.67484 12.60006,88.42585 -14.76254,15.1836 -37.07689,20.96707 -57.76694,14.97214 l 0,0 z"
     id="path3195"
     inkscape:connector-curvature="0"
     transform="matrix(0.21230273,0,0,0.21230273,-5e-4,0)" /><path
     style="fill:none;stroke:none"
     d=""
     id="path3197"
     inkscape:connector-curvature="0"
     transform="matrix(0.21230273,0,0,0.21230273,-5e-4,0)" /><path
     style="fill:none;stroke:none"
     d="m 356.18406,422.70959 c -10.9695,-1.55722 -20.49714,-5.55668 -29.36623,-12.32719 -4.92919,-3.76286 -8.56437,-7.75111 -12.58066,-13.80258 -5.95914,-8.97884 -8.56845,-17.18335 -9.06374,-28.49937 l -0.3135,-7.16282 -60.86031,-30.47803 -60.86032,-30.47804 -2.56023,1.7615 c -4.17308,2.87115 -12.15361,6.33887 -17.66881,7.67749 -4.37322,1.06144 -6.62914,1.25436 -14.91525,1.27547 -12.32087,0.0314 -18.11501,-1.23941 -27.38983,-6.00726 -19.41739,-9.98178 -32.006517,-30.52241 -31.997936,-52.20841 0.0119,-30.08578 21.605386,-54.67361 51.991796,-59.20142 8.98351,-1.33861 21.03223,0.46097 30.50413,4.55607 4.80769,2.07857 12.41138,6.66965 15.7804,9.52816 l 2.19527,1.86262 57.96656,-28.97923 57.96656,-28.97923 0.004,-5.15457 c 0.005,-6.40709 0.6958,-10.9538 2.51396,-16.5444 4.84046,-14.88374 14.06415,-25.97558 27.85458,-33.496176 13.52841,-7.377704 31.53386,-8.989009 47.01502,-4.207367 23.21787,7.17127 39.86359,28.328573 41.21068,52.380233 0.94049,16.79204 -5.38373,32.80757 -17.86314,45.23682 -2.4064,2.39672 -4.61198,4.35767 -4.90129,4.35767 -0.28931,0 1.40352,-2.01356 3.76185,-4.47457 13.08028,-13.64985 19.83681,-32.29468 17.55446,-48.44212 -4.289,-30.34444 -31.11601,-52.158068 -62.09961,-50.494563 -13.32044,0.715172 -26.04845,6.061602 -35.63919,14.970333 -5.62985,5.2295 -9.10353,9.8687 -12.41193,16.57652 -3.17443,6.4362 -4.49816,11.35443 -5.32821,19.79661 -0.33729,3.43051 -0.74505,7.34436 -0.90613,8.69745 l -0.29287,2.46017 -57.86338,28.92578 -57.86338,28.92578 -6.23729,-4.2241 c -7.32273,-4.95921 -15.35271,-8.92392 -21.42373,-10.57771 -6.19914,-1.6887 -18.84246,-2.08297 -25.22495,-0.78662 -31.78474,6.45581 -52.581277,37.17665 -46.080651,68.07077 5.6079,26.65146 27.115561,45.07615 54.252601,46.47587 11.29428,0.58256 17.87603,-0.9199 30.2849,-6.91335 l 7.85135,-3.79217 61.39399,30.78777 61.39399,30.78778 0.28813,7.59823 c 0.3456,9.11416 1.09493,12.12541 4.99495,20.07282 3.42093,6.97111 6.99259,11.87852 13.02613,17.89771 7.3142,7.2968 14.74445,11.59414 24.6608,14.26277 4.58071,1.23274 6.19194,1.3883 14.3791,1.3883 8.29171,0 9.76659,-0.14649 14.64407,-1.45448 6.47554,-1.73655 15.96935,-6.30883 20.93196,-10.08097 11.70985,-8.90081 20.38479,-23.25864 22.71,-37.58718 0.83211,-5.1277 0.68115,-15.07797 -0.30098,-19.83885 -2.64997,-12.8457 -9.51151,-24.36581 -19.39136,-32.55699 -11.33207,-9.39516 -21.48998,-13.44411 -35.25346,-14.05206 -14.53299,-0.64193 -26.98656,3.02365 -37.06544,10.90984 -2.13978,1.67426 -4.11289,3.04411 -4.38468,3.04411 -0.51565,0 -49.40479,-23.84965 -79.85621,-38.95635 -17.75316,-8.8072 -26.80516,-13.60794 -25.71449,-13.6377 0.32484,-0.009 23.97361,11.58971 52.55284,25.77459 28.57923,14.18489 52.29128,25.66445 52.69344,25.51012 0.40217,-0.15432 2.88407,-1.74273 5.51533,-3.52979 6.38838,-4.33875 12.78099,-7.33068 19.35966,-9.06087 4.63213,-1.21824 6.57156,-1.4292 13.28814,-1.4454 8.34146,-0.0201 13.28975,0.74645 20.06779,3.10878 14.84733,5.1747 26.89925,15.78365 34.2337,30.13493 11.50828,22.51815 7.45971,47.32097 -11.0257,67.54694 -9.48214,10.37498 -24.38323,16.82777 -40.01527,17.32829 -3.73227,0.1195 -8.28731,0.004 -10.12232,-0.25636 l 0,0 z"
     id="path3199"
     inkscape:connector-curvature="0"
     transform="matrix(0.21230273,0,0,0.21230273,-5e-4,0)" /><path
     style="fill:#ffffff;stroke:none"
     d="m 356.53738,426.43089 c -9.6432,-0.79266 -18.0282,-3.68337 -26.41313,-9.10585 -9.10647,-5.88909 -17.41288,-14.93136 -22.24061,-24.21086 -3.39391,-6.52353 -5.03181,-12.06822 -6.32047,-21.39634 l -1.16138,-8.40678 -57.82826,-28.89959 -57.82826,-28.89958 -4.27343,1.9708 c -11.68257,5.38769 -14.70137,5.92523 -33.29039,5.92787 -17.36762,0.002 -18.20739,-0.13051 -26.19888,-4.14855 -7.64319,-3.84292 -13.45304,-7.97376 -18.858,-13.40817 -8.027299,-8.07101 -12.814942,-16.8747 -15.339732,-28.20726 -1.004626,-4.50928 -1.159018,-6.8721 -1.138273,-17.42027 l 0.024,-12.20339 1.800473,-4.88135 c 4.900571,-13.2862 12.644181,-23.8369 23.371431,-31.84368 11.10099,-8.28574 20.37295,-11.26763 35.24101,-11.33362 15.07572,-0.0669 25.69683,2.80266 39.33526,10.62748 l 5.42373,3.11176 47.18644,-23.64259 c 46.84377,-23.4709 56.10712,-28.38363 60.12366,-31.88605 2.03874,-1.77777 2.10195,-1.94373 2.5887,-6.79636 0.70691,-7.04771 2.15853,-12.20343 5.25903,-18.67844 7.51561,-15.69547 21.27441,-28.977832 34.44016,-33.24757 8.07013,-2.617194 13.21825,-3.266913 25.58845,-3.229394 9.86637,0.02993 11.97019,0.190187 15.72881,1.19816 5.6966,1.527694 14.29552,5.807138 19.60622,9.757475 18.80994,13.991669 27.02073,31.983869 25.57323,56.038289 -0.89964,14.95006 -5.92117,25.79604 -17.50691,37.81314 -11.32663,11.74834 -20.97159,16.606 -36.84303,18.55587 -9.306,1.14328 -23.05083,-0.19176 -31.77866,-3.08667 -2.23729,-0.74208 -7.12361,-2.81393 -10.85849,-4.60411 l -6.79069,-3.25486 -26.56524,13.6535 c -57.29325,29.44649 -73.85721,38.25631 -79.07382,42.05675 -1.66332,1.21177 -2.54709,2.23513 -2.43609,2.82086 0.0984,0.51939 3.00309,2.54008 6.67807,4.64571 7.08875,4.06161 49.77903,26.37449 80.7933,42.22815 l 19.50975,9.97285 9.5072,-4.44779 c 14.18627,-6.63682 20.91883,-8.36555 32.82923,-8.4296 12.76075,-0.0686 23.86967,3.2336 34.36054,10.21398 10.49833,6.98535 19.6189,18.03062 24.2017,29.30895 5.93286,14.60087 5.71938,33.58121 -0.54034,48.04055 -4.88276,11.2787 -17.75651,25.45371 -28.60536,31.49675 -6.15141,3.42647 -13.6062,5.53039 -21.41955,6.04513 -8.68438,0.57211 -10.84252,0.59724 -15.8614,0.1847 l 0,0 z m 21.15255,-4.26774 c 5.26305,-1.17615 14.23071,-4.46312 15.77152,-5.78083 0.47094,-0.40275 1.00786,-0.73228 1.19315,-0.73228 0.79998,0 5.39653,-3.49083 9.07585,-6.89262 9.51783,-8.79991 15.83409,-19.2518 19.02027,-31.47393 1.30796,-5.01733 1.85226,-15.94437 1.04571,-20.99318 -3.58889,-22.46552 -19.41103,-41.6744 -40.1404,-48.7325 -7.19285,-2.44908 -12.18568,-3.26022 -20.0678,-3.26022 -9.62885,0 -16.258,1.38879 -24.13559,5.05632 -3.48612,1.62302 -13.44034,7.9535 -13.74011,8.73816 -0.0994,0.26027 -0.5276,0.47323 -0.95147,0.47323 -0.42387,0 -11.96928,-5.60035 -25.65648,-12.44522 -13.6872,-6.84486 -25.03531,-12.29571 -25.21803,-12.11299 -0.18272,0.18272 -0.33222,0.0331 -0.33222,-0.33256 0,-0.36563 -0.24407,-0.51394 -0.54237,-0.32957 -0.29831,0.18436 -0.54237,0.0623 -0.54237,-0.27119 0,-0.33352 -0.22323,-0.46843 -0.49605,-0.29982 -0.27283,0.16862 -0.57791,0.0888 -0.67797,-0.17728 -0.10006,-0.26611 -7.27823,-4.03015 -15.95149,-8.36452 -17.84818,-8.91944 -35.096,-18.06644 -40.45693,-21.45543 -3.68217,-2.32774 -7.50231,-6.03196 -7.50231,-7.27465 0,-1.33549 9.95208,-6.8365 43.66102,-24.1336 11.6339,-5.96971 32.926,-16.73743 47.31578,-23.92827 l 26.16324,-13.07425 3.55265,2.17446 c 1.95396,1.19596 3.8483,2.23233 4.20965,2.30306 0.36134,0.0707 0.77902,0.27812 0.92817,0.46085 0.57264,0.70157 7.0053,3.63043 10.33905,4.70747 6.84262,2.21068 9.66701,2.55494 20.5762,2.50798 9.56689,-0.0412 11.07418,-0.17882 15.79329,-1.44224 10.24643,-2.74322 18.41856,-7.5023 26.29466,-15.31284 9.54396,-9.46449 15.01415,-19.95878 17.25232,-33.0977 0.70844,-4.15883 0.8181,-11.2673 0.27192,-17.62712 -0.20178,-2.34962 -2.3376,-10.04356 -3.68875,-13.28813 -1.7951,-4.31066 -3.58244,-7.86441 -3.95537,-7.86441 -0.24345,0 -0.44264,-0.33925 -0.44264,-0.75389 0,-0.97378 -4.0154,-6.40611 -7.09326,-9.59631 -9.72609,-10.081066 -21.06045,-15.955117 -35.5618,-18.429969 -5.95255,-1.015883 -18.17117,-0.366703 -24.70231,1.312444 -10.36605,2.665093 -19.35781,7.870343 -27.2963,15.801575 -10.16482,10.15554 -15.70843,22.90834 -16.45272,37.84866 l -0.35124,7.05063 -57.30249,28.4632 -57.30249,28.46321 -2.45625,-1.68995 c -1.35094,-0.92947 -2.5708,-1.68994 -2.71081,-1.68994 -0.14,0 -1.56043,-0.88046 -3.15651,-1.95658 -6.14669,-4.14426 -12.83159,-7.02274 -20.80026,-8.9565 -6.40964,-1.55544 -17.96499,-1.67758 -24.40678,-0.25799 -22.73939,5.0111 -39.39167,20.43358 -45.735134,42.35751 -7.445398,25.73238 3.835018,54.05436 26.948354,67.65982 4.74801,2.79487 9.72239,4.85328 15.70244,6.49769 3.55835,0.97849 5.67867,1.1477 14.47417,1.15511 8.78016,0.007 11.05994,-0.16979 15.40625,-1.19743 2.80563,-0.66336 5.36834,-1.37308 5.69491,-1.57716 0.32656,-0.20408 1.07172,-0.44536 1.65591,-0.53618 0.95021,-0.14772 3.98796,-1.7057 10.98564,-5.63424 l 2.28509,-1.28286 15.26207,7.59322 c 8.39414,4.17627 15.4811,7.5322 15.74881,7.45763 0.26771,-0.0746 0.48674,0.12288 0.48674,0.43879 0,0.31591 0.24407,0.42353 0.54237,0.23917 0.29831,-0.18436 0.54238,-0.0623 0.54238,0.27119 0,0.33351 0.24406,0.45555 0.54237,0.27118 0.2983,-0.18436 0.54237,-0.0623 0.54237,0.27119 0,0.33352 0.24407,0.45555 0.54238,0.27119 0.2983,-0.18437 0.54237,-0.0623 0.54237,0.27118 0,0.33352 0.24407,0.45555 0.54237,0.27119 0.29831,-0.18436 0.54237,-0.0623 0.54237,0.27119 0,0.33351 0.22323,0.46843 0.49605,0.29981 0.27283,-0.16861 0.57791,-0.0884 0.67797,0.17829 0.10006,0.26668 19.00257,9.8924 42.00559,21.39049 l 41.82366,20.90562 0.2823,6.68069 c 0.33557,7.94113 1.45425,13.14217 4.20184,19.53539 6.51291,15.15457 18.7958,26.86432 33.97367,32.38839 3.9354,1.43231 10.22421,2.91638 14.84401,3.50298 4.18833,0.5318 15.05374,-0.16329 20.0678,-1.28381 l 0,0 z m 11.11864,-1.40395 c 3.02024,-1.47914 2.16449,-1.26427 -2.71187,0.68092 -1.78983,0.71397 -2.52203,1.15167 -1.62711,0.97266 0.89491,-0.179 2.84745,-0.92311 4.33898,-1.65358 l 0,0 z m -86.20519,-58.68158 c -0.568,-0.56799 -0.65487,0.1457 -0.34822,2.86056 l 0.30632,2.71186 0.17259,-2.63457 c 0.0949,-1.44901 0.0361,-2.77104 -0.13069,-2.93785 l 0,0 z m 30.34078,-51.23516 c 0.5098,-0.49261 -9.46924,4.32041 -10.01819,4.8319 -0.14051,0.13093 0.0843,0.44808 0.49969,0.70477 0.51803,0.32016 2.04591,-0.39357 4.86565,-2.27293 2.26076,-1.5068 4.35455,-2.97549 4.65285,-3.26374 z M 180.2236,305.82927 c 4.00342,-1.73176 4.79045,-2.25007 3.97153,-2.61548 -0.76875,-0.34302 -2.15206,0.23664 -5.59377,2.34402 -5.22152,3.19718 -5.16369,3.20685 1.62224,0.27146 l 0,0 z m -70.46588,-5.36706 c 0,-0.11262 -0.42712,-0.53974 -0.94915,-0.94915 -0.86023,-0.67464 -0.87942,-0.65546 -0.20478,0.20478 0.70854,0.90346 1.15393,1.19077 1.15393,0.74437 z m -5.51554,-5.08335 c -4.11721,-4.27728 -8.16132,-9.64624 -10.009144,-13.28814 -0.718931,-1.41695 -1.447467,-2.57627 -1.61897,-2.57627 -0.480508,0 3.505985,7.05348 5.364426,9.49152 1.704484,2.23607 9.125908,10.0339 9.549558,10.0339 0.13098,0 -1.34766,-1.64746 -3.28587,-3.66101 z m 177.55486,-0.14697 c -0.98515,-0.60063 -4.28006,-2.33795 -7.32203,-3.86071 -19.7836,-9.90333 -56.3037,-29.42676 -59.36136,-31.73424 -5.19077,-3.91725 -1.38667,-6.43167 49.08475,-32.44383 12.00678,-6.1881 21.83051,-11.36786 21.83051,-11.51058 0,-0.2979 -43.02978,21.49591 -58.0339,29.39312 -13.67832,7.1994 -18.44068,9.99804 -18.44068,10.83686 0,0.82723 2.98371,3.54975 5.9256,5.40688 4.74019,2.99235 13.74528,7.7617 39.63372,20.99113 24.66595,12.60473 31.94726,16.13068 26.68339,12.92137 z M 91.925626,277.52123 c -0.639374,-1.09951 -0.79377,-0.74758 -0.270392,0.61632 0.186005,0.48472 0.452445,0.76705 0.592089,0.62741 0.139644,-0.13964 -0.0051,-0.69932 -0.321697,-1.24373 l 0,0 z m 98.819064,-71.58132 c 0.33561,-0.33561 -6.61043,-4.48503 -11.29205,-6.74564 -2.48782,-1.20129 -2.0989,-0.91735 5.06361,3.69673 5.48942,3.53628 5.65837,3.61898 6.22844,3.04891 z m 203.75879,-4.82039 c 0,-0.14915 -0.97627,0.22687 -2.16949,0.83561 -1.19322,0.60873 -2.16949,1.22882 -2.16949,1.37798 0,0.14915 0.97627,-0.22687 2.16949,-0.83561 1.19322,-0.60874 2.16949,-1.22883 2.16949,-1.37798 z m -62.91525,-0.45693 c 0,-0.48068 -6.66343,-4.12891 -7.4965,-4.10435 -0.50065,0.0147 0.92023,0.97896 3.15752,2.14265 4.42854,2.30344 4.33898,2.26295 4.33898,1.9617 l 0,0 z m -28.56306,-57.38023 c 0.18914,-3.67574 0.4685,-7.41537 0.6208,-8.31028 l 0.2769,-1.62712 -0.53879,1.62712 c -0.29634,0.89491 -0.697,3.63453 -0.89035,6.08804 -0.41461,5.26095 -1.27183,6.93406 -4.91939,9.60162 -3.63985,2.66192 -15.05656,8.88132 -29.85052,16.26144 -6.93559,3.45988 -12.61017,6.41226 -12.61017,6.56084 0,0.14857 10.70272,-5.08231 23.78381,-11.62418 l 23.78381,-11.89431 0.3439,-6.68317 0,0 z m 1.27254,-11.39503 c -0.17313,-0.43267 -0.30165,-0.30415 -0.32768,0.32768 -0.0235,0.57175 0.10464,0.89209 0.28487,0.71187 0.18022,-0.18023 0.19949,-0.64802 0.0428,-1.03955 l 2e-5,0 z m 29.46001,-37.631386 c 0,-0.149153 -0.48813,-0.0099 -1.08474,0.309352 -0.59661,0.319296 -1.08475,0.702572 -1.08475,0.851725 0,0.149153 0.48814,0.0099 1.08475,-0.309352 0.59661,-0.319296 1.08474,-0.702573 1.08474,-0.851725 z"
     id="path3201"
     inkscape:connector-curvature="0"
     transform="matrix(0.21230273,0,0,0.21230273,-5e-4,0)" /></svg>